# xmcd
#
# Track frame offsets:
#	150
#	14564
#	28793
#	43585
#	64310
#	83929
#	100836
#	123142
#	143021
#	162786
#	176052
#
# Disc length: 2613 seconds
# Revision: 3
# Processed by: cddbd v1.5.2PL0 Copyright (c) Steve Scherf et al.
# Submitted via: dBpowerAMP V12.0
#
DISCID=8e0a330b
DTITLE=Michael Martin Murphey - Buckaroo Blue Grass
DYEAR=2009
DGENRE=Country
TTITLE0=Lone Cowboy
TTITLE1=What Am I Doing Hanging Around
TTITLE2=Lost River
TTITLE3=Carolina in the Pines
TTITLE4=Cherokee Fiddle
TTITLE5=Dancing in the Meadow
TTITLE6=Healing Spring
TTITLE7=Fiddlin' Man
TTITLE8=Boy From the Country
TTITLE9=Wild Bird
TTITLE10=Close to the Land (America's Heartland)
EXTD=
EXTT0=
EXTT1=
EXTT2=
EXTT3=
EXTT4=
EXTT5=
EXTT6=
EXTT7=
EXTT8=
EXTT9=
EXTT10=
PLAYORDER=
